G04 #@! TF.GenerationSoftware,KiCad,Pcbnew,5.1.5+dfsg1-2build2*
G04 #@! TF.CreationDate,2020-08-31T20:47:26+02:00*
G04 #@! TF.ProjectId,fubar,66756261-722e-46b6-9963-61645f706362,rev?*
G04 #@! TF.SameCoordinates,Original*
G04 #@! TF.FileFunction,Soldermask,Top*
G04 #@! TF.FilePolarity,Negative*
%FSLAX46Y46*%
G04 Gerber Fmt 4.6, Leading zero omitted, Abs format (unit mm)*
G04 Created by KiCad (PCBNEW 5.1.5+dfsg1-2build2) date 2020-08-31 20:47:26*
%MOMM*%
%LPD*%
G04 APERTURE LIST*
%ADD10C,0.100000*%
G04 APERTURE END LIST*
D10*
G36*
X156784856Y-93684272D02*
G01*
X156985047Y-93767193D01*
X157165207Y-93887573D01*
X157318427Y-94040793D01*
X157438807Y-94220953D01*
X157521728Y-94421144D01*
X157564000Y-94633658D01*
X157564000Y-94850342D01*
X157521728Y-95062856D01*
X157438807Y-95263047D01*
X157318427Y-95443207D01*
X157165207Y-95596427D01*
X156985047Y-95716807D01*
X156784856Y-95799728D01*
X156572342Y-95842000D01*
X156355658Y-95842000D01*
X156143144Y-95799728D01*
X155942953Y-95716807D01*
X155762793Y-95596427D01*
X155609573Y-95443207D01*
X155489193Y-95263047D01*
X155406272Y-95062856D01*
X155364000Y-94850342D01*
X155364000Y-94633658D01*
X155406272Y-94421144D01*
X155489193Y-94220953D01*
X155609573Y-94040793D01*
X155762793Y-93887573D01*
X155942953Y-93767193D01*
X156143144Y-93684272D01*
X156355658Y-93642000D01*
X156572342Y-93642000D01*
X156784856Y-93684272D01*
G37*
G36*
X147404000Y-95842000D02*
G01*
X145204000Y-95842000D01*
X145204000Y-93642000D01*
X147404000Y-93642000D01*
X147404000Y-95842000D01*
G37*
G36*
X176787312Y-94206248D02*
G01*
X176890351Y-94226743D01*
X177035942Y-94287049D01*
X177166970Y-94374599D01*
X177278401Y-94486030D01*
X177365951Y-94617058D01*
X177426257Y-94762649D01*
X177457000Y-94917207D01*
X177457000Y-95074793D01*
X177426257Y-95229351D01*
X177365951Y-95374942D01*
X177278401Y-95505970D01*
X177166970Y-95617401D01*
X177035942Y-95704951D01*
X176890351Y-95765257D01*
X176787312Y-95785752D01*
X176735794Y-95796000D01*
X176578206Y-95796000D01*
X176526688Y-95785752D01*
X176423649Y-95765257D01*
X176278058Y-95704951D01*
X176147030Y-95617401D01*
X176035599Y-95505970D01*
X175948049Y-95374942D01*
X175887743Y-95229351D01*
X175857000Y-95074793D01*
X175857000Y-94917207D01*
X175887743Y-94762649D01*
X175948049Y-94617058D01*
X176035599Y-94486030D01*
X176147030Y-94374599D01*
X176278058Y-94287049D01*
X176423649Y-94226743D01*
X176526688Y-94206248D01*
X176578206Y-94196000D01*
X176735794Y-94196000D01*
X176787312Y-94206248D01*
G37*
G36*
X170691312Y-94206248D02*
G01*
X170794351Y-94226743D01*
X170939942Y-94287049D01*
X171070970Y-94374599D01*
X171182401Y-94486030D01*
X171269951Y-94617058D01*
X171330257Y-94762649D01*
X171361000Y-94917207D01*
X171361000Y-95074793D01*
X171330257Y-95229351D01*
X171269951Y-95374942D01*
X171182401Y-95505970D01*
X171070970Y-95617401D01*
X170939942Y-95704951D01*
X170794351Y-95765257D01*
X170691312Y-95785752D01*
X170639794Y-95796000D01*
X170482206Y-95796000D01*
X170430688Y-95785752D01*
X170327649Y-95765257D01*
X170182058Y-95704951D01*
X170051030Y-95617401D01*
X169939599Y-95505970D01*
X169852049Y-95374942D01*
X169791743Y-95229351D01*
X169761000Y-95074793D01*
X169761000Y-94917207D01*
X169791743Y-94762649D01*
X169852049Y-94617058D01*
X169939599Y-94486030D01*
X170051030Y-94374599D01*
X170182058Y-94287049D01*
X170327649Y-94226743D01*
X170430688Y-94206248D01*
X170482206Y-94196000D01*
X170639794Y-94196000D01*
X170691312Y-94206248D01*
G37*
G36*
X126976000Y-95353000D02*
G01*
X123976000Y-95353000D01*
X123976000Y-92353000D01*
X126976000Y-92353000D01*
X126976000Y-95353000D01*
G37*
G36*
X163941000Y-92392500D02*
G01*
X161941000Y-92392500D01*
X161941000Y-90487500D01*
X163941000Y-90487500D01*
X163941000Y-92392500D01*
G37*
G36*
X151849758Y-87870653D02*
G01*
X152017196Y-87903958D01*
X152253781Y-88001955D01*
X152466702Y-88144224D01*
X152647776Y-88325298D01*
X152790045Y-88538219D01*
X152888042Y-88774804D01*
X152938000Y-89025961D01*
X152938000Y-89282039D01*
X152888042Y-89533196D01*
X152790045Y-89769781D01*
X152647776Y-89982702D01*
X152466702Y-90163776D01*
X152253781Y-90306045D01*
X152017196Y-90404042D01*
X151849758Y-90437347D01*
X151766040Y-90454000D01*
X151509960Y-90454000D01*
X151426242Y-90437347D01*
X151258804Y-90404042D01*
X151022219Y-90306045D01*
X150809298Y-90163776D01*
X150628224Y-89982702D01*
X150485955Y-89769781D01*
X150387958Y-89533196D01*
X150338000Y-89282039D01*
X150338000Y-89025961D01*
X150387958Y-88774804D01*
X150485955Y-88538219D01*
X150628224Y-88325298D01*
X150809298Y-88144224D01*
X151022219Y-88001955D01*
X151258804Y-87903958D01*
X151426242Y-87870653D01*
X151509960Y-87854000D01*
X151766040Y-87854000D01*
X151849758Y-87870653D01*
G37*
G36*
X140573000Y-90408000D02*
G01*
X138573000Y-90408000D01*
X138573000Y-88408000D01*
X140573000Y-88408000D01*
X140573000Y-90408000D01*
G37*
G36*
X125720336Y-87292215D02*
G01*
X125913534Y-87330644D01*
X126186517Y-87443717D01*
X126432194Y-87607874D01*
X126641126Y-87816806D01*
X126805283Y-88062483D01*
X126918356Y-88335466D01*
X126976000Y-88625263D01*
X126976000Y-88920737D01*
X126918356Y-89210534D01*
X126805283Y-89483517D01*
X126641126Y-89729194D01*
X126432194Y-89938126D01*
X126186517Y-90102283D01*
X125913534Y-90215356D01*
X125720336Y-90253785D01*
X125623738Y-90273000D01*
X125328262Y-90273000D01*
X125231664Y-90253785D01*
X125038466Y-90215356D01*
X124765483Y-90102283D01*
X124519806Y-89938126D01*
X124310874Y-89729194D01*
X124146717Y-89483517D01*
X124033644Y-89210534D01*
X123976000Y-88920737D01*
X123976000Y-88625263D01*
X124033644Y-88335466D01*
X124146717Y-88062483D01*
X124310874Y-87816806D01*
X124519806Y-87607874D01*
X124765483Y-87443717D01*
X125038466Y-87330644D01*
X125231664Y-87292215D01*
X125328262Y-87273000D01*
X125623738Y-87273000D01*
X125720336Y-87292215D01*
G37*
G36*
X163175225Y-87961282D02*
G01*
X163354770Y-88015747D01*
X163520238Y-88104191D01*
X163665278Y-88223222D01*
X163784309Y-88368262D01*
X163872753Y-88533730D01*
X163927218Y-88713275D01*
X163945609Y-88900000D01*
X163927218Y-89086725D01*
X163872753Y-89266270D01*
X163784309Y-89431738D01*
X163665278Y-89576778D01*
X163520238Y-89695809D01*
X163354770Y-89784253D01*
X163175225Y-89838718D01*
X163035294Y-89852500D01*
X162846706Y-89852500D01*
X162706775Y-89838718D01*
X162527230Y-89784253D01*
X162361762Y-89695809D01*
X162216722Y-89576778D01*
X162097691Y-89431738D01*
X162009247Y-89266270D01*
X161954782Y-89086725D01*
X161936391Y-88900000D01*
X161954782Y-88713275D01*
X162009247Y-88533730D01*
X162097691Y-88368262D01*
X162216722Y-88223222D01*
X162361762Y-88104191D01*
X162527230Y-88015747D01*
X162706775Y-87961282D01*
X162846706Y-87947500D01*
X163035294Y-87947500D01*
X163175225Y-87961282D01*
G37*
G36*
X207366824Y-86841575D02*
G01*
X207517633Y-86887322D01*
X207656604Y-86961604D01*
X207778422Y-87061578D01*
X207878396Y-87183396D01*
X207952678Y-87322367D01*
X207998425Y-87473176D01*
X208013871Y-87630000D01*
X207998425Y-87786824D01*
X207952678Y-87937633D01*
X207878396Y-88076604D01*
X207778422Y-88198422D01*
X207656604Y-88298396D01*
X207517633Y-88372678D01*
X207366824Y-88418425D01*
X207249299Y-88430000D01*
X206770701Y-88430000D01*
X206653176Y-88418425D01*
X206502367Y-88372678D01*
X206363396Y-88298396D01*
X206241578Y-88198422D01*
X206141604Y-88076604D01*
X206067322Y-87937633D01*
X206021575Y-87786824D01*
X206006129Y-87630000D01*
X206021575Y-87473176D01*
X206067322Y-87322367D01*
X206141604Y-87183396D01*
X206241578Y-87061578D01*
X206363396Y-86961604D01*
X206502367Y-86887322D01*
X206653176Y-86841575D01*
X206770701Y-86830000D01*
X207249299Y-86830000D01*
X207366824Y-86841575D01*
G37*
G36*
X184506824Y-86841575D02*
G01*
X184657633Y-86887322D01*
X184796604Y-86961604D01*
X184918422Y-87061578D01*
X185018396Y-87183396D01*
X185092678Y-87322367D01*
X185138425Y-87473176D01*
X185153871Y-87630000D01*
X185138425Y-87786824D01*
X185092678Y-87937633D01*
X185018396Y-88076604D01*
X184918422Y-88198422D01*
X184796604Y-88298396D01*
X184657633Y-88372678D01*
X184506824Y-88418425D01*
X184389299Y-88430000D01*
X183910701Y-88430000D01*
X183793176Y-88418425D01*
X183642367Y-88372678D01*
X183503396Y-88298396D01*
X183381578Y-88198422D01*
X183281604Y-88076604D01*
X183207322Y-87937633D01*
X183161575Y-87786824D01*
X183146129Y-87630000D01*
X183161575Y-87473176D01*
X183207322Y-87322367D01*
X183281604Y-87183396D01*
X183381578Y-87061578D01*
X183503396Y-86961604D01*
X183642367Y-86887322D01*
X183793176Y-86841575D01*
X183910701Y-86830000D01*
X184389299Y-86830000D01*
X184506824Y-86841575D01*
G37*
G36*
X163175225Y-85421282D02*
G01*
X163354770Y-85475747D01*
X163520238Y-85564191D01*
X163665278Y-85683222D01*
X163784309Y-85828262D01*
X163872753Y-85993730D01*
X163927218Y-86173275D01*
X163945609Y-86360000D01*
X163927218Y-86546725D01*
X163872753Y-86726270D01*
X163784309Y-86891738D01*
X163665278Y-87036778D01*
X163520238Y-87155809D01*
X163354770Y-87244253D01*
X163175225Y-87298718D01*
X163035294Y-87312500D01*
X162846706Y-87312500D01*
X162706775Y-87298718D01*
X162527230Y-87244253D01*
X162361762Y-87155809D01*
X162216722Y-87036778D01*
X162097691Y-86891738D01*
X162009247Y-86726270D01*
X161954782Y-86546725D01*
X161936391Y-86360000D01*
X161954782Y-86173275D01*
X162009247Y-85993730D01*
X162097691Y-85828262D01*
X162216722Y-85683222D01*
X162361762Y-85564191D01*
X162527230Y-85475747D01*
X162706775Y-85421282D01*
X162846706Y-85407500D01*
X163035294Y-85407500D01*
X163175225Y-85421282D01*
G37*
G36*
X184506824Y-84301575D02*
G01*
X184657633Y-84347322D01*
X184796604Y-84421604D01*
X184918422Y-84521578D01*
X185018396Y-84643396D01*
X185092678Y-84782367D01*
X185138425Y-84933176D01*
X185153871Y-85090000D01*
X185138425Y-85246824D01*
X185092678Y-85397633D01*
X185018396Y-85536604D01*
X184918422Y-85658422D01*
X184796604Y-85758396D01*
X184657633Y-85832678D01*
X184506824Y-85878425D01*
X184389299Y-85890000D01*
X183910701Y-85890000D01*
X183793176Y-85878425D01*
X183642367Y-85832678D01*
X183503396Y-85758396D01*
X183381578Y-85658422D01*
X183281604Y-85536604D01*
X183207322Y-85397633D01*
X183161575Y-85246824D01*
X183146129Y-85090000D01*
X183161575Y-84933176D01*
X183207322Y-84782367D01*
X183281604Y-84643396D01*
X183381578Y-84521578D01*
X183503396Y-84421604D01*
X183642367Y-84347322D01*
X183793176Y-84301575D01*
X183910701Y-84290000D01*
X184389299Y-84290000D01*
X184506824Y-84301575D01*
G37*
G36*
X207366824Y-84301575D02*
G01*
X207517633Y-84347322D01*
X207656604Y-84421604D01*
X207778422Y-84521578D01*
X207878396Y-84643396D01*
X207952678Y-84782367D01*
X207998425Y-84933176D01*
X208013871Y-85090000D01*
X207998425Y-85246824D01*
X207952678Y-85397633D01*
X207878396Y-85536604D01*
X207778422Y-85658422D01*
X207656604Y-85758396D01*
X207517633Y-85832678D01*
X207366824Y-85878425D01*
X207249299Y-85890000D01*
X206770701Y-85890000D01*
X206653176Y-85878425D01*
X206502367Y-85832678D01*
X206363396Y-85758396D01*
X206241578Y-85658422D01*
X206141604Y-85536604D01*
X206067322Y-85397633D01*
X206021575Y-85246824D01*
X206006129Y-85090000D01*
X206021575Y-84933176D01*
X206067322Y-84782367D01*
X206141604Y-84643396D01*
X206241578Y-84521578D01*
X206363396Y-84421604D01*
X206502367Y-84347322D01*
X206653176Y-84301575D01*
X206770701Y-84290000D01*
X207249299Y-84290000D01*
X207366824Y-84301575D01*
G37*
G36*
X151849758Y-82870653D02*
G01*
X152017196Y-82903958D01*
X152253781Y-83001955D01*
X152466702Y-83144224D01*
X152647776Y-83325298D01*
X152790045Y-83538219D01*
X152888042Y-83774804D01*
X152888042Y-83774806D01*
X152938000Y-84025960D01*
X152938000Y-84282040D01*
X152921347Y-84365758D01*
X152888042Y-84533196D01*
X152790045Y-84769781D01*
X152647776Y-84982702D01*
X152466702Y-85163776D01*
X152253781Y-85306045D01*
X152017196Y-85404042D01*
X151849758Y-85437347D01*
X151766040Y-85454000D01*
X151509960Y-85454000D01*
X151426242Y-85437347D01*
X151258804Y-85404042D01*
X151022219Y-85306045D01*
X150809298Y-85163776D01*
X150628224Y-84982702D01*
X150485955Y-84769781D01*
X150387958Y-84533196D01*
X150354653Y-84365758D01*
X150338000Y-84282040D01*
X150338000Y-84025960D01*
X150387958Y-83774806D01*
X150387958Y-83774804D01*
X150485955Y-83538219D01*
X150628224Y-83325298D01*
X150809298Y-83144224D01*
X151022219Y-83001955D01*
X151258804Y-82903958D01*
X151426242Y-82870653D01*
X151509960Y-82854000D01*
X151766040Y-82854000D01*
X151849758Y-82870653D01*
G37*
G36*
X139768090Y-83427215D02*
G01*
X139864689Y-83446429D01*
X140046678Y-83521811D01*
X140210463Y-83631249D01*
X140349751Y-83770537D01*
X140459189Y-83934322D01*
X140534571Y-84116311D01*
X140537400Y-84130534D01*
X140569120Y-84290000D01*
X140573000Y-84309509D01*
X140573000Y-84506491D01*
X140534571Y-84699689D01*
X140459189Y-84881678D01*
X140349751Y-85045463D01*
X140210463Y-85184751D01*
X140046678Y-85294189D01*
X139864689Y-85369571D01*
X139768090Y-85388785D01*
X139671493Y-85408000D01*
X139474507Y-85408000D01*
X139377910Y-85388786D01*
X139281311Y-85369571D01*
X139099322Y-85294189D01*
X138935537Y-85184751D01*
X138796249Y-85045463D01*
X138686811Y-84881678D01*
X138611429Y-84699689D01*
X138573000Y-84506491D01*
X138573000Y-84309509D01*
X138576881Y-84290000D01*
X138608600Y-84130534D01*
X138611429Y-84116311D01*
X138686811Y-83934322D01*
X138796249Y-83770537D01*
X138935537Y-83631249D01*
X139099322Y-83521811D01*
X139281311Y-83446429D01*
X139377910Y-83427215D01*
X139474507Y-83408000D01*
X139671493Y-83408000D01*
X139768090Y-83427215D01*
G37*
G36*
X125720336Y-82212215D02*
G01*
X125913534Y-82250644D01*
X126186517Y-82363717D01*
X126432194Y-82527874D01*
X126641126Y-82736806D01*
X126805283Y-82982483D01*
X126918356Y-83255466D01*
X126976000Y-83545263D01*
X126976000Y-83840737D01*
X126918356Y-84130534D01*
X126805283Y-84403517D01*
X126641126Y-84649194D01*
X126432194Y-84858126D01*
X126186517Y-85022283D01*
X125913534Y-85135356D01*
X125770656Y-85163776D01*
X125623738Y-85193000D01*
X125328262Y-85193000D01*
X125181344Y-85163776D01*
X125038466Y-85135356D01*
X124765483Y-85022283D01*
X124519806Y-84858126D01*
X124310874Y-84649194D01*
X124146717Y-84403517D01*
X124033644Y-84130534D01*
X123976000Y-83840737D01*
X123976000Y-83545263D01*
X124033644Y-83255466D01*
X124146717Y-82982483D01*
X124310874Y-82736806D01*
X124519806Y-82527874D01*
X124765483Y-82363717D01*
X125038466Y-82250644D01*
X125231664Y-82212215D01*
X125328262Y-82193000D01*
X125623738Y-82193000D01*
X125720336Y-82212215D01*
G37*
G36*
X207366824Y-81761575D02*
G01*
X207517633Y-81807322D01*
X207656604Y-81881604D01*
X207778422Y-81981578D01*
X207878396Y-82103396D01*
X207952678Y-82242367D01*
X207998425Y-82393176D01*
X208013871Y-82550000D01*
X207998425Y-82706824D01*
X207952678Y-82857633D01*
X207878396Y-82996604D01*
X207778422Y-83118422D01*
X207656604Y-83218396D01*
X207517633Y-83292678D01*
X207366824Y-83338425D01*
X207249299Y-83350000D01*
X206770701Y-83350000D01*
X206653176Y-83338425D01*
X206502367Y-83292678D01*
X206363396Y-83218396D01*
X206241578Y-83118422D01*
X206141604Y-82996604D01*
X206067322Y-82857633D01*
X206021575Y-82706824D01*
X206006129Y-82550000D01*
X206021575Y-82393176D01*
X206067322Y-82242367D01*
X206141604Y-82103396D01*
X206241578Y-81981578D01*
X206363396Y-81881604D01*
X206502367Y-81807322D01*
X206653176Y-81761575D01*
X206770701Y-81750000D01*
X207249299Y-81750000D01*
X207366824Y-81761575D01*
G37*
G36*
X184506824Y-81761575D02*
G01*
X184657633Y-81807322D01*
X184796604Y-81881604D01*
X184918422Y-81981578D01*
X185018396Y-82103396D01*
X185092678Y-82242367D01*
X185138425Y-82393176D01*
X185153871Y-82550000D01*
X185138425Y-82706824D01*
X185092678Y-82857633D01*
X185018396Y-82996604D01*
X184918422Y-83118422D01*
X184796604Y-83218396D01*
X184657633Y-83292678D01*
X184506824Y-83338425D01*
X184389299Y-83350000D01*
X183910701Y-83350000D01*
X183793176Y-83338425D01*
X183642367Y-83292678D01*
X183503396Y-83218396D01*
X183381578Y-83118422D01*
X183281604Y-82996604D01*
X183207322Y-82857633D01*
X183161575Y-82706824D01*
X183146129Y-82550000D01*
X183161575Y-82393176D01*
X183207322Y-82242367D01*
X183281604Y-82103396D01*
X183381578Y-81981578D01*
X183503396Y-81881604D01*
X183642367Y-81807322D01*
X183793176Y-81761575D01*
X183910701Y-81750000D01*
X184389299Y-81750000D01*
X184506824Y-81761575D01*
G37*
G36*
X170691312Y-81506248D02*
G01*
X170794351Y-81526743D01*
X170939942Y-81587049D01*
X171070970Y-81674599D01*
X171182401Y-81786030D01*
X171269951Y-81917058D01*
X171330257Y-82062649D01*
X171338362Y-82103396D01*
X171361000Y-82217206D01*
X171361000Y-82374794D01*
X171350752Y-82426312D01*
X171330257Y-82529351D01*
X171269951Y-82674942D01*
X171182401Y-82805970D01*
X171070970Y-82917401D01*
X170939942Y-83004951D01*
X170794351Y-83065257D01*
X170691312Y-83085752D01*
X170639794Y-83096000D01*
X170482206Y-83096000D01*
X170430688Y-83085752D01*
X170327649Y-83065257D01*
X170182058Y-83004951D01*
X170051030Y-82917401D01*
X169939599Y-82805970D01*
X169852049Y-82674942D01*
X169791743Y-82529351D01*
X169771248Y-82426312D01*
X169761000Y-82374794D01*
X169761000Y-82217206D01*
X169783638Y-82103396D01*
X169791743Y-82062649D01*
X169852049Y-81917058D01*
X169939599Y-81786030D01*
X170051030Y-81674599D01*
X170182058Y-81587049D01*
X170327649Y-81526743D01*
X170430688Y-81506248D01*
X170482206Y-81496000D01*
X170639794Y-81496000D01*
X170691312Y-81506248D01*
G37*
G36*
X176787312Y-81506248D02*
G01*
X176890351Y-81526743D01*
X177035942Y-81587049D01*
X177166970Y-81674599D01*
X177278401Y-81786030D01*
X177365951Y-81917058D01*
X177426257Y-82062649D01*
X177434362Y-82103396D01*
X177457000Y-82217206D01*
X177457000Y-82374794D01*
X177446752Y-82426312D01*
X177426257Y-82529351D01*
X177365951Y-82674942D01*
X177278401Y-82805970D01*
X177166970Y-82917401D01*
X177035942Y-83004951D01*
X176890351Y-83065257D01*
X176787312Y-83085752D01*
X176735794Y-83096000D01*
X176578206Y-83096000D01*
X176526688Y-83085752D01*
X176423649Y-83065257D01*
X176278058Y-83004951D01*
X176147030Y-82917401D01*
X176035599Y-82805970D01*
X175948049Y-82674942D01*
X175887743Y-82529351D01*
X175867248Y-82426312D01*
X175857000Y-82374794D01*
X175857000Y-82217206D01*
X175879638Y-82103396D01*
X175887743Y-82062649D01*
X175948049Y-81917058D01*
X176035599Y-81786030D01*
X176147030Y-81674599D01*
X176278058Y-81587049D01*
X176423649Y-81526743D01*
X176526688Y-81506248D01*
X176578206Y-81496000D01*
X176735794Y-81496000D01*
X176787312Y-81506248D01*
G37*
G36*
X207366824Y-79221575D02*
G01*
X207517633Y-79267322D01*
X207656604Y-79341604D01*
X207778422Y-79441578D01*
X207878396Y-79563396D01*
X207952678Y-79702367D01*
X207998425Y-79853176D01*
X208013871Y-80010000D01*
X207998425Y-80166824D01*
X207952678Y-80317633D01*
X207878396Y-80456604D01*
X207778422Y-80578422D01*
X207656604Y-80678396D01*
X207517633Y-80752678D01*
X207366824Y-80798425D01*
X207249299Y-80810000D01*
X206770701Y-80810000D01*
X206653176Y-80798425D01*
X206502367Y-80752678D01*
X206363396Y-80678396D01*
X206241578Y-80578422D01*
X206141604Y-80456604D01*
X206067322Y-80317633D01*
X206021575Y-80166824D01*
X206006129Y-80010000D01*
X206021575Y-79853176D01*
X206067322Y-79702367D01*
X206141604Y-79563396D01*
X206241578Y-79441578D01*
X206363396Y-79341604D01*
X206502367Y-79267322D01*
X206653176Y-79221575D01*
X206770701Y-79210000D01*
X207249299Y-79210000D01*
X207366824Y-79221575D01*
G37*
G36*
X184506824Y-79221575D02*
G01*
X184657633Y-79267322D01*
X184796604Y-79341604D01*
X184918422Y-79441578D01*
X185018396Y-79563396D01*
X185092678Y-79702367D01*
X185138425Y-79853176D01*
X185153871Y-80010000D01*
X185138425Y-80166824D01*
X185092678Y-80317633D01*
X185018396Y-80456604D01*
X184918422Y-80578422D01*
X184796604Y-80678396D01*
X184657633Y-80752678D01*
X184506824Y-80798425D01*
X184389299Y-80810000D01*
X183910701Y-80810000D01*
X183793176Y-80798425D01*
X183642367Y-80752678D01*
X183503396Y-80678396D01*
X183381578Y-80578422D01*
X183281604Y-80456604D01*
X183207322Y-80317633D01*
X183161575Y-80166824D01*
X183146129Y-80010000D01*
X183161575Y-79853176D01*
X183207322Y-79702367D01*
X183281604Y-79563396D01*
X183381578Y-79441578D01*
X183503396Y-79341604D01*
X183642367Y-79267322D01*
X183793176Y-79221575D01*
X183910701Y-79210000D01*
X184389299Y-79210000D01*
X184506824Y-79221575D01*
G37*
G36*
X167101027Y-76443115D02*
G01*
X167319414Y-76533573D01*
X167515954Y-76664898D01*
X167683102Y-76832046D01*
X167814427Y-77028586D01*
X167904885Y-77246973D01*
X167951000Y-77478809D01*
X167951000Y-77715191D01*
X167904885Y-77947027D01*
X167814427Y-78165414D01*
X167683102Y-78361954D01*
X167515954Y-78529102D01*
X167319414Y-78660427D01*
X167101027Y-78750885D01*
X166869191Y-78797000D01*
X166632809Y-78797000D01*
X166400973Y-78750885D01*
X166182586Y-78660427D01*
X165986046Y-78529102D01*
X165818898Y-78361954D01*
X165687573Y-78165414D01*
X165597115Y-77947027D01*
X165551000Y-77715191D01*
X165551000Y-77478809D01*
X165597115Y-77246973D01*
X165687573Y-77028586D01*
X165818898Y-76832046D01*
X165986046Y-76664898D01*
X166182586Y-76533573D01*
X166400973Y-76443115D01*
X166632809Y-76397000D01*
X166869191Y-76397000D01*
X167101027Y-76443115D01*
G37*
G36*
X154401027Y-76443115D02*
G01*
X154619414Y-76533573D01*
X154815954Y-76664898D01*
X154983102Y-76832046D01*
X155114427Y-77028586D01*
X155204885Y-77246973D01*
X155251000Y-77478809D01*
X155251000Y-77715191D01*
X155204885Y-77947027D01*
X155114427Y-78165414D01*
X154983102Y-78361954D01*
X154815954Y-78529102D01*
X154619414Y-78660427D01*
X154401027Y-78750885D01*
X154169191Y-78797000D01*
X153932809Y-78797000D01*
X153700973Y-78750885D01*
X153482586Y-78660427D01*
X153286046Y-78529102D01*
X153118898Y-78361954D01*
X152987573Y-78165414D01*
X152897115Y-77947027D01*
X152851000Y-77715191D01*
X152851000Y-77478809D01*
X152897115Y-77246973D01*
X152987573Y-77028586D01*
X153118898Y-76832046D01*
X153286046Y-76664898D01*
X153482586Y-76533573D01*
X153700973Y-76443115D01*
X153932809Y-76397000D01*
X154169191Y-76397000D01*
X154401027Y-76443115D01*
G37*
G36*
X177031936Y-76779665D02*
G01*
X177186626Y-76843739D01*
X177256076Y-76890145D01*
X177325844Y-76936762D01*
X177444238Y-77055156D01*
X177490855Y-77124924D01*
X177537261Y-77194374D01*
X177601335Y-77349064D01*
X177634000Y-77513282D01*
X177634000Y-77680718D01*
X177601335Y-77844936D01*
X177537261Y-77999626D01*
X177490855Y-78069076D01*
X177444238Y-78138844D01*
X177325844Y-78257238D01*
X177256076Y-78303855D01*
X177186626Y-78350261D01*
X177031936Y-78414335D01*
X176867718Y-78447000D01*
X176700282Y-78447000D01*
X176536064Y-78414335D01*
X176381374Y-78350261D01*
X176311924Y-78303855D01*
X176242156Y-78257238D01*
X176123762Y-78138844D01*
X176077145Y-78069076D01*
X176030739Y-77999626D01*
X175966665Y-77844936D01*
X175934000Y-77680718D01*
X175934000Y-77513282D01*
X175966665Y-77349064D01*
X176030739Y-77194374D01*
X176077145Y-77124924D01*
X176123762Y-77055156D01*
X176242156Y-76936762D01*
X176311924Y-76890145D01*
X176381374Y-76843739D01*
X176536064Y-76779665D01*
X176700282Y-76747000D01*
X176867718Y-76747000D01*
X177031936Y-76779665D01*
G37*
G36*
X184506824Y-76681575D02*
G01*
X184657633Y-76727322D01*
X184796604Y-76801604D01*
X184918422Y-76901578D01*
X185018396Y-77023396D01*
X185092678Y-77162367D01*
X185138425Y-77313176D01*
X185153871Y-77470000D01*
X185138425Y-77626824D01*
X185092678Y-77777633D01*
X185018396Y-77916604D01*
X184918422Y-78038422D01*
X184796604Y-78138396D01*
X184657633Y-78212678D01*
X184506824Y-78258425D01*
X184389299Y-78270000D01*
X183910701Y-78270000D01*
X183793176Y-78258425D01*
X183642367Y-78212678D01*
X183503396Y-78138396D01*
X183381578Y-78038422D01*
X183281604Y-77916604D01*
X183207322Y-77777633D01*
X183161575Y-77626824D01*
X183146129Y-77470000D01*
X183161575Y-77313176D01*
X183207322Y-77162367D01*
X183281604Y-77023396D01*
X183381578Y-76901578D01*
X183503396Y-76801604D01*
X183642367Y-76727322D01*
X183793176Y-76681575D01*
X183910701Y-76670000D01*
X184389299Y-76670000D01*
X184506824Y-76681575D01*
G37*
G36*
X207366824Y-76681575D02*
G01*
X207517633Y-76727322D01*
X207656604Y-76801604D01*
X207778422Y-76901578D01*
X207878396Y-77023396D01*
X207952678Y-77162367D01*
X207998425Y-77313176D01*
X208013871Y-77470000D01*
X207998425Y-77626824D01*
X207952678Y-77777633D01*
X207878396Y-77916604D01*
X207778422Y-78038422D01*
X207656604Y-78138396D01*
X207517633Y-78212678D01*
X207366824Y-78258425D01*
X207249299Y-78270000D01*
X206770701Y-78270000D01*
X206653176Y-78258425D01*
X206502367Y-78212678D01*
X206363396Y-78138396D01*
X206241578Y-78038422D01*
X206141604Y-77916604D01*
X206067322Y-77777633D01*
X206021575Y-77626824D01*
X206006129Y-77470000D01*
X206021575Y-77313176D01*
X206067322Y-77162367D01*
X206141604Y-77023396D01*
X206241578Y-76901578D01*
X206363396Y-76801604D01*
X206502367Y-76727322D01*
X206653176Y-76681575D01*
X206770701Y-76670000D01*
X207249299Y-76670000D01*
X207366824Y-76681575D01*
G37*
G36*
X177634000Y-75907000D02*
G01*
X175934000Y-75907000D01*
X175934000Y-74207000D01*
X177634000Y-74207000D01*
X177634000Y-75907000D01*
G37*
G36*
X207366824Y-74141575D02*
G01*
X207517633Y-74187322D01*
X207656604Y-74261604D01*
X207778422Y-74361578D01*
X207878396Y-74483396D01*
X207952678Y-74622367D01*
X207998425Y-74773176D01*
X208013871Y-74930000D01*
X207998425Y-75086824D01*
X207952678Y-75237633D01*
X207878396Y-75376604D01*
X207778422Y-75498422D01*
X207656604Y-75598396D01*
X207517633Y-75672678D01*
X207366824Y-75718425D01*
X207249299Y-75730000D01*
X206770701Y-75730000D01*
X206653176Y-75718425D01*
X206502367Y-75672678D01*
X206363396Y-75598396D01*
X206241578Y-75498422D01*
X206141604Y-75376604D01*
X206067322Y-75237633D01*
X206021575Y-75086824D01*
X206006129Y-74930000D01*
X206021575Y-74773176D01*
X206067322Y-74622367D01*
X206141604Y-74483396D01*
X206241578Y-74361578D01*
X206363396Y-74261604D01*
X206502367Y-74187322D01*
X206653176Y-74141575D01*
X206770701Y-74130000D01*
X207249299Y-74130000D01*
X207366824Y-74141575D01*
G37*
G36*
X184506824Y-74141575D02*
G01*
X184657633Y-74187322D01*
X184796604Y-74261604D01*
X184918422Y-74361578D01*
X185018396Y-74483396D01*
X185092678Y-74622367D01*
X185138425Y-74773176D01*
X185153871Y-74930000D01*
X185138425Y-75086824D01*
X185092678Y-75237633D01*
X185018396Y-75376604D01*
X184918422Y-75498422D01*
X184796604Y-75598396D01*
X184657633Y-75672678D01*
X184506824Y-75718425D01*
X184389299Y-75730000D01*
X183910701Y-75730000D01*
X183793176Y-75718425D01*
X183642367Y-75672678D01*
X183503396Y-75598396D01*
X183381578Y-75498422D01*
X183281604Y-75376604D01*
X183207322Y-75237633D01*
X183161575Y-75086824D01*
X183146129Y-74930000D01*
X183161575Y-74773176D01*
X183207322Y-74622367D01*
X183281604Y-74483396D01*
X183381578Y-74361578D01*
X183503396Y-74261604D01*
X183642367Y-74187322D01*
X183793176Y-74141575D01*
X183910701Y-74130000D01*
X184389299Y-74130000D01*
X184506824Y-74141575D01*
G37*
G36*
X207366824Y-71601575D02*
G01*
X207517633Y-71647322D01*
X207656604Y-71721604D01*
X207778422Y-71821578D01*
X207878396Y-71943396D01*
X207952678Y-72082367D01*
X207998425Y-72233176D01*
X208013871Y-72390000D01*
X207998425Y-72546824D01*
X207952678Y-72697633D01*
X207878396Y-72836604D01*
X207778422Y-72958422D01*
X207656604Y-73058396D01*
X207517633Y-73132678D01*
X207366824Y-73178425D01*
X207249299Y-73190000D01*
X206770701Y-73190000D01*
X206653176Y-73178425D01*
X206502367Y-73132678D01*
X206363396Y-73058396D01*
X206241578Y-72958422D01*
X206141604Y-72836604D01*
X206067322Y-72697633D01*
X206021575Y-72546824D01*
X206006129Y-72390000D01*
X206021575Y-72233176D01*
X206067322Y-72082367D01*
X206141604Y-71943396D01*
X206241578Y-71821578D01*
X206363396Y-71721604D01*
X206502367Y-71647322D01*
X206653176Y-71601575D01*
X206770701Y-71590000D01*
X207249299Y-71590000D01*
X207366824Y-71601575D01*
G37*
G36*
X184506824Y-71601575D02*
G01*
X184657633Y-71647322D01*
X184796604Y-71721604D01*
X184918422Y-71821578D01*
X185018396Y-71943396D01*
X185092678Y-72082367D01*
X185138425Y-72233176D01*
X185153871Y-72390000D01*
X185138425Y-72546824D01*
X185092678Y-72697633D01*
X185018396Y-72836604D01*
X184918422Y-72958422D01*
X184796604Y-73058396D01*
X184657633Y-73132678D01*
X184506824Y-73178425D01*
X184389299Y-73190000D01*
X183910701Y-73190000D01*
X183793176Y-73178425D01*
X183642367Y-73132678D01*
X183503396Y-73058396D01*
X183381578Y-72958422D01*
X183281604Y-72836604D01*
X183207322Y-72697633D01*
X183161575Y-72546824D01*
X183146129Y-72390000D01*
X183161575Y-72233176D01*
X183207322Y-72082367D01*
X183281604Y-71943396D01*
X183381578Y-71821578D01*
X183503396Y-71721604D01*
X183642367Y-71647322D01*
X183793176Y-71601575D01*
X183910701Y-71590000D01*
X184389299Y-71590000D01*
X184506824Y-71601575D01*
G37*
G36*
X139820936Y-71445665D02*
G01*
X139975626Y-71509739D01*
X140045076Y-71556145D01*
X140114844Y-71602762D01*
X140233238Y-71721156D01*
X140279855Y-71790924D01*
X140326261Y-71860374D01*
X140390335Y-72015064D01*
X140423000Y-72179282D01*
X140423000Y-72346718D01*
X140390335Y-72510936D01*
X140326261Y-72665626D01*
X140304874Y-72697633D01*
X140233238Y-72804844D01*
X140114844Y-72923238D01*
X140069800Y-72953335D01*
X139975626Y-73016261D01*
X139820936Y-73080335D01*
X139656718Y-73113000D01*
X139489282Y-73113000D01*
X139325064Y-73080335D01*
X139170374Y-73016261D01*
X139076200Y-72953335D01*
X139031156Y-72923238D01*
X138912762Y-72804844D01*
X138841126Y-72697633D01*
X138819739Y-72665626D01*
X138755665Y-72510936D01*
X138723000Y-72346718D01*
X138723000Y-72179282D01*
X138755665Y-72015064D01*
X138819739Y-71860374D01*
X138866145Y-71790924D01*
X138912762Y-71721156D01*
X139031156Y-71602762D01*
X139100924Y-71556145D01*
X139170374Y-71509739D01*
X139325064Y-71445665D01*
X139489282Y-71413000D01*
X139656718Y-71413000D01*
X139820936Y-71445665D01*
G37*
G36*
X142360936Y-71445665D02*
G01*
X142515626Y-71509739D01*
X142585076Y-71556145D01*
X142654844Y-71602762D01*
X142773238Y-71721156D01*
X142819855Y-71790924D01*
X142866261Y-71860374D01*
X142930335Y-72015064D01*
X142963000Y-72179282D01*
X142963000Y-72346718D01*
X142930335Y-72510936D01*
X142866261Y-72665626D01*
X142844874Y-72697633D01*
X142773238Y-72804844D01*
X142654844Y-72923238D01*
X142609800Y-72953335D01*
X142515626Y-73016261D01*
X142360936Y-73080335D01*
X142196718Y-73113000D01*
X142029282Y-73113000D01*
X141865064Y-73080335D01*
X141710374Y-73016261D01*
X141616200Y-72953335D01*
X141571156Y-72923238D01*
X141452762Y-72804844D01*
X141381126Y-72697633D01*
X141359739Y-72665626D01*
X141295665Y-72510936D01*
X141263000Y-72346718D01*
X141263000Y-72179282D01*
X141295665Y-72015064D01*
X141359739Y-71860374D01*
X141406145Y-71790924D01*
X141452762Y-71721156D01*
X141571156Y-71602762D01*
X141640924Y-71556145D01*
X141710374Y-71509739D01*
X141865064Y-71445665D01*
X142029282Y-71413000D01*
X142196718Y-71413000D01*
X142360936Y-71445665D01*
G37*
G36*
X137280936Y-71445665D02*
G01*
X137435626Y-71509739D01*
X137505076Y-71556145D01*
X137574844Y-71602762D01*
X137693238Y-71721156D01*
X137739855Y-71790924D01*
X137786261Y-71860374D01*
X137850335Y-72015064D01*
X137883000Y-72179282D01*
X137883000Y-72346718D01*
X137850335Y-72510936D01*
X137786261Y-72665626D01*
X137764874Y-72697633D01*
X137693238Y-72804844D01*
X137574844Y-72923238D01*
X137529800Y-72953335D01*
X137435626Y-73016261D01*
X137280936Y-73080335D01*
X137116718Y-73113000D01*
X136949282Y-73113000D01*
X136785064Y-73080335D01*
X136630374Y-73016261D01*
X136536200Y-72953335D01*
X136491156Y-72923238D01*
X136372762Y-72804844D01*
X136301126Y-72697633D01*
X136279739Y-72665626D01*
X136215665Y-72510936D01*
X136183000Y-72346718D01*
X136183000Y-72179282D01*
X136215665Y-72015064D01*
X136279739Y-71860374D01*
X136326145Y-71790924D01*
X136372762Y-71721156D01*
X136491156Y-71602762D01*
X136560924Y-71556145D01*
X136630374Y-71509739D01*
X136785064Y-71445665D01*
X136949282Y-71413000D01*
X137116718Y-71413000D01*
X137280936Y-71445665D01*
G37*
G36*
X130263000Y-73113000D02*
G01*
X128563000Y-73113000D01*
X128563000Y-71413000D01*
X130263000Y-71413000D01*
X130263000Y-73113000D01*
G37*
G36*
X132200936Y-71445665D02*
G01*
X132355626Y-71509739D01*
X132425076Y-71556145D01*
X132494844Y-71602762D01*
X132613238Y-71721156D01*
X132659855Y-71790924D01*
X132706261Y-71860374D01*
X132770335Y-72015064D01*
X132803000Y-72179282D01*
X132803000Y-72346718D01*
X132770335Y-72510936D01*
X132706261Y-72665626D01*
X132684874Y-72697633D01*
X132613238Y-72804844D01*
X132494844Y-72923238D01*
X132449800Y-72953335D01*
X132355626Y-73016261D01*
X132200936Y-73080335D01*
X132036718Y-73113000D01*
X131869282Y-73113000D01*
X131705064Y-73080335D01*
X131550374Y-73016261D01*
X131456200Y-72953335D01*
X131411156Y-72923238D01*
X131292762Y-72804844D01*
X131221126Y-72697633D01*
X131199739Y-72665626D01*
X131135665Y-72510936D01*
X131103000Y-72346718D01*
X131103000Y-72179282D01*
X131135665Y-72015064D01*
X131199739Y-71860374D01*
X131246145Y-71790924D01*
X131292762Y-71721156D01*
X131411156Y-71602762D01*
X131480924Y-71556145D01*
X131550374Y-71509739D01*
X131705064Y-71445665D01*
X131869282Y-71413000D01*
X132036718Y-71413000D01*
X132200936Y-71445665D01*
G37*
G36*
X134740936Y-71445665D02*
G01*
X134895626Y-71509739D01*
X134965076Y-71556145D01*
X135034844Y-71602762D01*
X135153238Y-71721156D01*
X135199855Y-71790924D01*
X135246261Y-71860374D01*
X135310335Y-72015064D01*
X135343000Y-72179282D01*
X135343000Y-72346718D01*
X135310335Y-72510936D01*
X135246261Y-72665626D01*
X135224874Y-72697633D01*
X135153238Y-72804844D01*
X135034844Y-72923238D01*
X134989800Y-72953335D01*
X134895626Y-73016261D01*
X134740936Y-73080335D01*
X134576718Y-73113000D01*
X134409282Y-73113000D01*
X134245064Y-73080335D01*
X134090374Y-73016261D01*
X133996200Y-72953335D01*
X133951156Y-72923238D01*
X133832762Y-72804844D01*
X133761126Y-72697633D01*
X133739739Y-72665626D01*
X133675665Y-72510936D01*
X133643000Y-72346718D01*
X133643000Y-72179282D01*
X133675665Y-72015064D01*
X133739739Y-71860374D01*
X133786145Y-71790924D01*
X133832762Y-71721156D01*
X133951156Y-71602762D01*
X134020924Y-71556145D01*
X134090374Y-71509739D01*
X134245064Y-71445665D01*
X134409282Y-71413000D01*
X134576718Y-71413000D01*
X134740936Y-71445665D01*
G37*
G36*
X166744936Y-71318665D02*
G01*
X166899626Y-71382739D01*
X166944914Y-71413000D01*
X167038844Y-71475762D01*
X167157238Y-71594156D01*
X167192762Y-71647322D01*
X167250261Y-71733374D01*
X167314335Y-71888064D01*
X167347000Y-72052282D01*
X167347000Y-72219718D01*
X167314335Y-72383936D01*
X167250261Y-72538626D01*
X167203855Y-72608076D01*
X167157238Y-72677844D01*
X167038844Y-72796238D01*
X166969076Y-72842855D01*
X166899626Y-72889261D01*
X166744936Y-72953335D01*
X166580718Y-72986000D01*
X166413282Y-72986000D01*
X166249064Y-72953335D01*
X166094374Y-72889261D01*
X166024924Y-72842855D01*
X165955156Y-72796238D01*
X165836762Y-72677844D01*
X165790145Y-72608076D01*
X165743739Y-72538626D01*
X165679665Y-72383936D01*
X165647000Y-72219718D01*
X165647000Y-72052282D01*
X165679665Y-71888064D01*
X165743739Y-71733374D01*
X165801238Y-71647322D01*
X165836762Y-71594156D01*
X165955156Y-71475762D01*
X166049086Y-71413000D01*
X166094374Y-71382739D01*
X166249064Y-71318665D01*
X166413282Y-71286000D01*
X166580718Y-71286000D01*
X166744936Y-71318665D01*
G37*
G36*
X164204936Y-71318665D02*
G01*
X164359626Y-71382739D01*
X164404914Y-71413000D01*
X164498844Y-71475762D01*
X164617238Y-71594156D01*
X164652762Y-71647322D01*
X164710261Y-71733374D01*
X164774335Y-71888064D01*
X164807000Y-72052282D01*
X164807000Y-72219718D01*
X164774335Y-72383936D01*
X164710261Y-72538626D01*
X164663855Y-72608076D01*
X164617238Y-72677844D01*
X164498844Y-72796238D01*
X164429076Y-72842855D01*
X164359626Y-72889261D01*
X164204936Y-72953335D01*
X164040718Y-72986000D01*
X163873282Y-72986000D01*
X163709064Y-72953335D01*
X163554374Y-72889261D01*
X163484924Y-72842855D01*
X163415156Y-72796238D01*
X163296762Y-72677844D01*
X163250145Y-72608076D01*
X163203739Y-72538626D01*
X163139665Y-72383936D01*
X163107000Y-72219718D01*
X163107000Y-72052282D01*
X163139665Y-71888064D01*
X163203739Y-71733374D01*
X163261238Y-71647322D01*
X163296762Y-71594156D01*
X163415156Y-71475762D01*
X163509086Y-71413000D01*
X163554374Y-71382739D01*
X163709064Y-71318665D01*
X163873282Y-71286000D01*
X164040718Y-71286000D01*
X164204936Y-71318665D01*
G37*
G36*
X161664936Y-71318665D02*
G01*
X161819626Y-71382739D01*
X161864914Y-71413000D01*
X161958844Y-71475762D01*
X162077238Y-71594156D01*
X162112762Y-71647322D01*
X162170261Y-71733374D01*
X162234335Y-71888064D01*
X162267000Y-72052282D01*
X162267000Y-72219718D01*
X162234335Y-72383936D01*
X162170261Y-72538626D01*
X162123855Y-72608076D01*
X162077238Y-72677844D01*
X161958844Y-72796238D01*
X161889076Y-72842855D01*
X161819626Y-72889261D01*
X161664936Y-72953335D01*
X161500718Y-72986000D01*
X161333282Y-72986000D01*
X161169064Y-72953335D01*
X161014374Y-72889261D01*
X160944924Y-72842855D01*
X160875156Y-72796238D01*
X160756762Y-72677844D01*
X160710145Y-72608076D01*
X160663739Y-72538626D01*
X160599665Y-72383936D01*
X160567000Y-72219718D01*
X160567000Y-72052282D01*
X160599665Y-71888064D01*
X160663739Y-71733374D01*
X160721238Y-71647322D01*
X160756762Y-71594156D01*
X160875156Y-71475762D01*
X160969086Y-71413000D01*
X161014374Y-71382739D01*
X161169064Y-71318665D01*
X161333282Y-71286000D01*
X161500718Y-71286000D01*
X161664936Y-71318665D01*
G37*
G36*
X159124936Y-71318665D02*
G01*
X159279626Y-71382739D01*
X159324914Y-71413000D01*
X159418844Y-71475762D01*
X159537238Y-71594156D01*
X159572762Y-71647322D01*
X159630261Y-71733374D01*
X159694335Y-71888064D01*
X159727000Y-72052282D01*
X159727000Y-72219718D01*
X159694335Y-72383936D01*
X159630261Y-72538626D01*
X159583855Y-72608076D01*
X159537238Y-72677844D01*
X159418844Y-72796238D01*
X159349076Y-72842855D01*
X159279626Y-72889261D01*
X159124936Y-72953335D01*
X158960718Y-72986000D01*
X158793282Y-72986000D01*
X158629064Y-72953335D01*
X158474374Y-72889261D01*
X158404924Y-72842855D01*
X158335156Y-72796238D01*
X158216762Y-72677844D01*
X158170145Y-72608076D01*
X158123739Y-72538626D01*
X158059665Y-72383936D01*
X158027000Y-72219718D01*
X158027000Y-72052282D01*
X158059665Y-71888064D01*
X158123739Y-71733374D01*
X158181238Y-71647322D01*
X158216762Y-71594156D01*
X158335156Y-71475762D01*
X158429086Y-71413000D01*
X158474374Y-71382739D01*
X158629064Y-71318665D01*
X158793282Y-71286000D01*
X158960718Y-71286000D01*
X159124936Y-71318665D01*
G37*
G36*
X156584936Y-71318665D02*
G01*
X156739626Y-71382739D01*
X156784914Y-71413000D01*
X156878844Y-71475762D01*
X156997238Y-71594156D01*
X157032762Y-71647322D01*
X157090261Y-71733374D01*
X157154335Y-71888064D01*
X157187000Y-72052282D01*
X157187000Y-72219718D01*
X157154335Y-72383936D01*
X157090261Y-72538626D01*
X157043855Y-72608076D01*
X156997238Y-72677844D01*
X156878844Y-72796238D01*
X156809076Y-72842855D01*
X156739626Y-72889261D01*
X156584936Y-72953335D01*
X156420718Y-72986000D01*
X156253282Y-72986000D01*
X156089064Y-72953335D01*
X155934374Y-72889261D01*
X155864924Y-72842855D01*
X155795156Y-72796238D01*
X155676762Y-72677844D01*
X155630145Y-72608076D01*
X155583739Y-72538626D01*
X155519665Y-72383936D01*
X155487000Y-72219718D01*
X155487000Y-72052282D01*
X155519665Y-71888064D01*
X155583739Y-71733374D01*
X155641238Y-71647322D01*
X155676762Y-71594156D01*
X155795156Y-71475762D01*
X155889086Y-71413000D01*
X155934374Y-71382739D01*
X156089064Y-71318665D01*
X156253282Y-71286000D01*
X156420718Y-71286000D01*
X156584936Y-71318665D01*
G37*
G36*
X154647000Y-72986000D02*
G01*
X152947000Y-72986000D01*
X152947000Y-71286000D01*
X154647000Y-71286000D01*
X154647000Y-72986000D01*
G37*
G36*
X185150000Y-70850000D02*
G01*
X183150000Y-70850000D01*
X183150000Y-68850000D01*
X185150000Y-68850000D01*
X185150000Y-70850000D01*
G37*
G36*
X207366824Y-69061575D02*
G01*
X207517633Y-69107322D01*
X207656604Y-69181604D01*
X207778422Y-69281578D01*
X207878396Y-69403396D01*
X207952678Y-69542367D01*
X207998425Y-69693176D01*
X208013871Y-69850000D01*
X207998425Y-70006824D01*
X207952678Y-70157633D01*
X207878396Y-70296604D01*
X207778422Y-70418422D01*
X207656604Y-70518396D01*
X207517633Y-70592678D01*
X207366824Y-70638425D01*
X207249299Y-70650000D01*
X206770701Y-70650000D01*
X206653176Y-70638425D01*
X206502367Y-70592678D01*
X206363396Y-70518396D01*
X206241578Y-70418422D01*
X206141604Y-70296604D01*
X206067322Y-70157633D01*
X206021575Y-70006824D01*
X206006129Y-69850000D01*
X206021575Y-69693176D01*
X206067322Y-69542367D01*
X206141604Y-69403396D01*
X206241578Y-69281578D01*
X206363396Y-69181604D01*
X206502367Y-69107322D01*
X206653176Y-69061575D01*
X206770701Y-69050000D01*
X207249299Y-69050000D01*
X207366824Y-69061575D01*
G37*
G36*
X177158936Y-67635665D02*
G01*
X177313626Y-67699739D01*
X177383076Y-67746145D01*
X177452844Y-67792762D01*
X177571238Y-67911156D01*
X177617855Y-67980924D01*
X177664261Y-68050374D01*
X177728335Y-68205064D01*
X177761000Y-68369282D01*
X177761000Y-68536718D01*
X177728335Y-68700936D01*
X177664261Y-68855626D01*
X177617855Y-68925076D01*
X177571238Y-68994844D01*
X177452844Y-69113238D01*
X177383076Y-69159855D01*
X177313626Y-69206261D01*
X177158936Y-69270335D01*
X176994718Y-69303000D01*
X176827282Y-69303000D01*
X176663064Y-69270335D01*
X176508374Y-69206261D01*
X176438924Y-69159855D01*
X176369156Y-69113238D01*
X176250762Y-68994844D01*
X176204145Y-68925076D01*
X176157739Y-68855626D01*
X176093665Y-68700936D01*
X176061000Y-68536718D01*
X176061000Y-68369282D01*
X176093665Y-68205064D01*
X176157739Y-68050374D01*
X176204145Y-67980924D01*
X176250762Y-67911156D01*
X176369156Y-67792762D01*
X176438924Y-67746145D01*
X176508374Y-67699739D01*
X176663064Y-67635665D01*
X176827282Y-67603000D01*
X176994718Y-67603000D01*
X177158936Y-67635665D01*
G37*
G36*
X177158936Y-65095665D02*
G01*
X177313626Y-65159739D01*
X177383076Y-65206145D01*
X177452844Y-65252762D01*
X177571238Y-65371156D01*
X177617855Y-65440924D01*
X177664261Y-65510374D01*
X177728335Y-65665064D01*
X177761000Y-65829282D01*
X177761000Y-65996718D01*
X177728335Y-66160936D01*
X177664261Y-66315626D01*
X177617855Y-66385076D01*
X177571238Y-66454844D01*
X177452844Y-66573238D01*
X177383076Y-66619855D01*
X177313626Y-66666261D01*
X177158936Y-66730335D01*
X176994718Y-66763000D01*
X176827282Y-66763000D01*
X176663064Y-66730335D01*
X176508374Y-66666261D01*
X176438924Y-66619855D01*
X176369156Y-66573238D01*
X176250762Y-66454844D01*
X176204145Y-66385076D01*
X176157739Y-66315626D01*
X176093665Y-66160936D01*
X176061000Y-65996718D01*
X176061000Y-65829282D01*
X176093665Y-65665064D01*
X176157739Y-65510374D01*
X176204145Y-65440924D01*
X176250762Y-65371156D01*
X176369156Y-65252762D01*
X176438924Y-65206145D01*
X176508374Y-65159739D01*
X176663064Y-65095665D01*
X176827282Y-65063000D01*
X176994718Y-65063000D01*
X177158936Y-65095665D01*
G37*
G36*
X177761000Y-64223000D02*
G01*
X176061000Y-64223000D01*
X176061000Y-62523000D01*
X177761000Y-62523000D01*
X177761000Y-64223000D01*
G37*
M02*
