M48
; DRILL file {KiCad 5.1.5+dfsg1-2build2} date Mon 31 Aug 2020 20:48:12 CEST
; FORMAT={-:-/ absolute / inch / decimal}
; #@! TF.CreationDate,2020-08-31T20:48:12+02:00
; #@! TF.GenerationSoftware,Kicad,Pcbnew,5.1.5+dfsg1-2build2
FMAT,2
INCH
T1C0.0315
T2C0.0394
T3C0.0433
T4C0.0472
T5C0.0512
T6C0.0598
%
G90
G05
T1
X6.715Y-3.24
X6.715Y-3.74
X6.955Y-3.24
X6.955Y-3.74
T2
X6.965Y-2.495
X6.965Y-2.595
X6.965Y-2.695
X5.095Y-2.845
X5.195Y-2.845
X5.295Y-2.845
X5.395Y-2.845
X5.495Y-2.845
X5.595Y-2.845
X5.495Y-3.3231
X5.495Y-3.52
X6.055Y-2.84
X6.155Y-2.84
X6.255Y-2.84
X6.355Y-2.84
X6.455Y-2.84
X6.555Y-2.84
X6.96Y-2.955
X6.96Y-3.055
X7.25Y-2.75
X7.25Y-2.85
X7.25Y-2.95
X7.25Y-3.05
X7.25Y-3.15
X7.25Y-3.25
X7.25Y-3.35
X7.25Y-3.45
X8.15Y-2.75
X8.15Y-2.85
X8.15Y-2.95
X8.15Y-3.05
X8.15Y-3.15
X8.15Y-3.25
X8.15Y-3.35
X8.15Y-3.45
T3
X5.76Y-3.73
X6.16Y-3.73
X6.415Y-3.4
X6.415Y-3.5
X6.415Y-3.6
T4
X6.065Y-3.055
X6.565Y-3.055
T5
X5.97Y-3.3131
X5.97Y-3.51
T6
X4.94Y-3.295
X4.94Y-3.495
X4.94Y-3.695
T0
M30
