G04 #@! TF.GenerationSoftware,KiCad,Pcbnew,5.1.4+dfsg1-1*
G04 #@! TF.CreationDate,2020-04-10T15:29:50+02:00*
G04 #@! TF.ProjectId,fubar,66756261-722e-46b6-9963-61645f706362,rev?*
G04 #@! TF.SameCoordinates,Original*
G04 #@! TF.FileFunction,Copper,L2,Bot*
G04 #@! TF.FilePolarity,Positive*
%FSLAX46Y46*%
G04 Gerber Fmt 4.6, Leading zero omitted, Abs format (unit mm)*
G04 Created by KiCad (PCBNEW 5.1.4+dfsg1-1) date 2020-04-10 15:29:50*
%MOMM*%
%LPD*%
G04 APERTURE LIST*
%ADD10C,0.300000*%
%ADD11O,1.700000X1.700000*%
%ADD12R,1.700000X1.700000*%
%ADD13O,1.050000X1.500000*%
%ADD14R,1.050000X1.500000*%
%ADD15R,3.000000X3.000000*%
%ADD16C,3.000000*%
%ADD17O,2.000000X1.600000*%
%ADD18R,2.000000X2.000000*%
%ADD19C,1.600000*%
%ADD20O,1.600000X1.600000*%
%ADD21C,0.800000*%
%ADD22C,0.250000*%
%ADD23C,0.500000*%
G04 APERTURE END LIST*
D10*
X201072142Y-79419571D02*
X201072142Y-80419571D01*
X201429285Y-78848142D02*
X201786428Y-79919571D01*
X200857857Y-79919571D01*
X200286428Y-79848142D02*
X199143571Y-79848142D01*
X198500714Y-79062428D02*
X198429285Y-78991000D01*
X198286428Y-78919571D01*
X197929285Y-78919571D01*
X197786428Y-78991000D01*
X197715000Y-79062428D01*
X197643571Y-79205285D01*
X197643571Y-79348142D01*
X197715000Y-79562428D01*
X198572142Y-80419571D01*
X197643571Y-80419571D01*
X196715000Y-78919571D02*
X196572142Y-78919571D01*
X196429285Y-78991000D01*
X196357857Y-79062428D01*
X196286428Y-79205285D01*
X196215000Y-79491000D01*
X196215000Y-79848142D01*
X196286428Y-80133857D01*
X196357857Y-80276714D01*
X196429285Y-80348142D01*
X196572142Y-80419571D01*
X196715000Y-80419571D01*
X196857857Y-80348142D01*
X196929285Y-80276714D01*
X197000714Y-80133857D01*
X197072142Y-79848142D01*
X197072142Y-79491000D01*
X197000714Y-79205285D01*
X196929285Y-79062428D01*
X196857857Y-78991000D01*
X196715000Y-78919571D01*
X194429285Y-80419571D02*
X194429285Y-79419571D01*
X194429285Y-79562428D02*
X194357857Y-79491000D01*
X194215000Y-79419571D01*
X194000714Y-79419571D01*
X193857857Y-79491000D01*
X193786428Y-79633857D01*
X193786428Y-80419571D01*
X193786428Y-79633857D02*
X193715000Y-79491000D01*
X193572142Y-79419571D01*
X193357857Y-79419571D01*
X193215000Y-79491000D01*
X193143571Y-79633857D01*
X193143571Y-80419571D01*
X192500714Y-79991000D02*
X191786428Y-79991000D01*
X192643571Y-80419571D02*
X192143571Y-78919571D01*
X191643571Y-80419571D01*
X199429285Y-82969571D02*
X199429285Y-81969571D01*
X199429285Y-82255285D02*
X199357857Y-82112428D01*
X199286428Y-82041000D01*
X199143571Y-81969571D01*
X199000714Y-81969571D01*
X197929285Y-82898142D02*
X198072142Y-82969571D01*
X198357857Y-82969571D01*
X198500714Y-82898142D01*
X198572142Y-82755285D01*
X198572142Y-82183857D01*
X198500714Y-82041000D01*
X198357857Y-81969571D01*
X198072142Y-81969571D01*
X197929285Y-82041000D01*
X197857857Y-82183857D01*
X197857857Y-82326714D01*
X198572142Y-82469571D01*
X196572142Y-82969571D02*
X196572142Y-82183857D01*
X196643571Y-82041000D01*
X196786428Y-81969571D01*
X197072142Y-81969571D01*
X197215000Y-82041000D01*
X196572142Y-82898142D02*
X196715000Y-82969571D01*
X197072142Y-82969571D01*
X197215000Y-82898142D01*
X197286428Y-82755285D01*
X197286428Y-82612428D01*
X197215000Y-82469571D01*
X197072142Y-82398142D01*
X196715000Y-82398142D01*
X196572142Y-82326714D01*
X195215000Y-82969571D02*
X195215000Y-81469571D01*
X195215000Y-82898142D02*
X195357857Y-82969571D01*
X195643571Y-82969571D01*
X195786428Y-82898142D01*
X195857857Y-82826714D01*
X195929285Y-82683857D01*
X195929285Y-82255285D01*
X195857857Y-82112428D01*
X195786428Y-82041000D01*
X195643571Y-81969571D01*
X195357857Y-81969571D01*
X195215000Y-82041000D01*
X193929285Y-82898142D02*
X194072142Y-82969571D01*
X194357857Y-82969571D01*
X194500714Y-82898142D01*
X194572142Y-82755285D01*
X194572142Y-82183857D01*
X194500714Y-82041000D01*
X194357857Y-81969571D01*
X194072142Y-81969571D01*
X193929285Y-82041000D01*
X193857857Y-82183857D01*
X193857857Y-82326714D01*
X194572142Y-82469571D01*
X193215000Y-82969571D02*
X193215000Y-81969571D01*
X193215000Y-82255285D02*
X193143571Y-82112428D01*
X193072142Y-82041000D01*
X192929285Y-81969571D01*
X192786428Y-81969571D01*
X198893571Y-87069571D02*
X198893571Y-88283857D01*
X198965000Y-88426714D01*
X199036428Y-88498142D01*
X199179285Y-88569571D01*
X199393571Y-88569571D01*
X199536428Y-88498142D01*
X198893571Y-87998142D02*
X199036428Y-88069571D01*
X199322142Y-88069571D01*
X199465000Y-87998142D01*
X199536428Y-87926714D01*
X199607857Y-87783857D01*
X199607857Y-87355285D01*
X199536428Y-87212428D01*
X199465000Y-87141000D01*
X199322142Y-87069571D01*
X199036428Y-87069571D01*
X198893571Y-87141000D01*
X197965000Y-88069571D02*
X198107857Y-87998142D01*
X198179285Y-87926714D01*
X198250714Y-87783857D01*
X198250714Y-87355285D01*
X198179285Y-87212428D01*
X198107857Y-87141000D01*
X197965000Y-87069571D01*
X197750714Y-87069571D01*
X197607857Y-87141000D01*
X197536428Y-87212428D01*
X197465000Y-87355285D01*
X197465000Y-87783857D01*
X197536428Y-87926714D01*
X197607857Y-87998142D01*
X197750714Y-88069571D01*
X197965000Y-88069571D01*
X196607857Y-88069571D02*
X196750714Y-87998142D01*
X196822142Y-87926714D01*
X196893571Y-87783857D01*
X196893571Y-87355285D01*
X196822142Y-87212428D01*
X196750714Y-87141000D01*
X196607857Y-87069571D01*
X196393571Y-87069571D01*
X196250714Y-87141000D01*
X196179285Y-87212428D01*
X196107857Y-87355285D01*
X196107857Y-87783857D01*
X196179285Y-87926714D01*
X196250714Y-87998142D01*
X196393571Y-88069571D01*
X196607857Y-88069571D01*
X195536428Y-87998142D02*
X195393571Y-88069571D01*
X195107857Y-88069571D01*
X194965000Y-87998142D01*
X194893571Y-87855285D01*
X194893571Y-87783857D01*
X194965000Y-87641000D01*
X195107857Y-87569571D01*
X195322142Y-87569571D01*
X195465000Y-87498142D01*
X195536428Y-87355285D01*
X195536428Y-87283857D01*
X195465000Y-87141000D01*
X195322142Y-87069571D01*
X195107857Y-87069571D01*
X194965000Y-87141000D01*
X194322142Y-87998142D02*
X194179285Y-88069571D01*
X193893571Y-88069571D01*
X193750714Y-87998142D01*
X193679285Y-87855285D01*
X193679285Y-87783857D01*
X193750714Y-87641000D01*
X193893571Y-87569571D01*
X194107857Y-87569571D01*
X194250714Y-87498142D01*
X194322142Y-87355285D01*
X194322142Y-87283857D01*
X194250714Y-87141000D01*
X194107857Y-87069571D01*
X193893571Y-87069571D01*
X193750714Y-87141000D01*
X193250714Y-87069571D02*
X192679285Y-87069571D01*
X193036428Y-86569571D02*
X193036428Y-87855285D01*
X192965000Y-87998142D01*
X192822142Y-88069571D01*
X192679285Y-88069571D01*
D11*
X153797000Y-63754000D03*
X156337000Y-63754000D03*
X158877000Y-63754000D03*
D12*
X161417000Y-63754000D03*
X153797000Y-95250000D03*
D11*
X156337000Y-95250000D03*
X158877000Y-95250000D03*
X161417000Y-95250000D03*
D12*
X145288000Y-76454000D03*
D11*
X145288000Y-73914000D03*
X145288000Y-71374000D03*
X145288000Y-68834000D03*
X145288000Y-66294000D03*
X145288000Y-63754000D03*
D12*
X172720000Y-67818000D03*
D11*
X172720000Y-70358000D03*
D13*
X172847000Y-95250000D03*
X174117000Y-95250000D03*
D14*
X171577000Y-95250000D03*
D15*
X128397000Y-93726000D03*
D16*
X128397000Y-88646000D03*
X128397000Y-83566000D03*
D17*
X184150000Y-72390000D03*
D18*
X184150000Y-69850000D03*
D17*
X184150000Y-74930000D03*
X184150000Y-77470000D03*
X184150000Y-80010000D03*
X184150000Y-82550000D03*
X184150000Y-85090000D03*
X184150000Y-87630000D03*
X207010000Y-87630000D03*
X207010000Y-85090000D03*
X207010000Y-82550000D03*
X207010000Y-80010000D03*
X207010000Y-77470000D03*
X207010000Y-74930000D03*
X207010000Y-72390000D03*
X207010000Y-69850000D03*
D19*
X172847000Y-86487000D03*
D20*
X172847000Y-78867000D03*
X145288000Y-95123000D03*
D19*
X145288000Y-87503000D03*
D21*
X171577000Y-95250000D03*
D22*
X160739000Y-61976000D02*
X161417000Y-62654000D01*
X147066000Y-61976000D02*
X160739000Y-61976000D01*
X161417000Y-62654000D02*
X161417000Y-63754000D01*
X145288000Y-63754000D02*
X147066000Y-61976000D01*
X142621000Y-66421000D02*
X145288000Y-63754000D01*
X142621000Y-84836000D02*
X142621000Y-66421000D01*
X145288000Y-87503000D02*
X142621000Y-84836000D01*
X183950000Y-87630000D02*
X184150000Y-87630000D01*
X145288000Y-79121000D02*
X161417000Y-95250000D01*
X145288000Y-76454000D02*
X145288000Y-79121000D01*
D23*
X182650000Y-87630000D02*
X180110000Y-90170000D01*
X184150000Y-87630000D02*
X182650000Y-87630000D01*
X166497000Y-90170000D02*
X161417000Y-95250000D01*
X180110000Y-90170000D02*
X166497000Y-90170000D01*
D22*
X171577000Y-95025000D02*
X171577000Y-95250000D01*
D23*
X207010000Y-85090000D02*
X206810000Y-85090000D01*
X171577000Y-94000000D02*
X173629000Y-91948000D01*
X171577000Y-95250000D02*
X171577000Y-94000000D01*
X199952000Y-91948000D02*
X202274500Y-89625500D01*
X206810000Y-85090000D02*
X202274500Y-89625500D01*
X173629000Y-91948000D02*
X199952000Y-91948000D01*
X202274500Y-89625500D02*
X201095000Y-90805000D01*
D22*
X171577000Y-95250000D02*
X171577000Y-95250000D01*
X207010000Y-77470000D02*
X205760000Y-77470000D01*
X195961000Y-77470000D02*
X207010000Y-77470000D01*
X183896000Y-65405000D02*
X195961000Y-77470000D01*
X168148000Y-65405000D02*
X183896000Y-65405000D01*
X145288000Y-68834000D02*
X164719000Y-68834000D01*
X164719000Y-68834000D02*
X168148000Y-65405000D01*
X177292000Y-74930000D02*
X172720000Y-70358000D01*
X184150000Y-74930000D02*
X177292000Y-74930000D01*
X143891000Y-93726000D02*
X145288000Y-95123000D01*
X128397000Y-93726000D02*
X143891000Y-93726000D01*
M02*
