G04 #@! TF.GenerationSoftware,KiCad,Pcbnew,5.1.4+dfsg1-1*
G04 #@! TF.CreationDate,2020-04-10T15:29:50+02:00*
G04 #@! TF.ProjectId,fubar,66756261-722e-46b6-9963-61645f706362,rev?*
G04 #@! TF.SameCoordinates,Original*
G04 #@! TF.FileFunction,Copper,L1,Top*
G04 #@! TF.FilePolarity,Positive*
%FSLAX46Y46*%
G04 Gerber Fmt 4.6, Leading zero omitted, Abs format (unit mm)*
G04 Created by KiCad (PCBNEW 5.1.4+dfsg1-1) date 2020-04-10 15:29:50*
%MOMM*%
%LPD*%
G04 APERTURE LIST*
%ADD10C,0.150000*%
%ADD11O,1.700000X1.700000*%
%ADD12R,1.700000X1.700000*%
%ADD13O,1.050000X1.500000*%
%ADD14R,1.050000X1.500000*%
%ADD15R,3.000000X3.000000*%
%ADD16C,3.000000*%
%ADD17O,2.000000X1.600000*%
%ADD18R,2.000000X2.000000*%
%ADD19C,1.600000*%
%ADD20O,1.600000X1.600000*%
%ADD21C,0.800000*%
%ADD22C,0.250000*%
G04 APERTURE END LIST*
D10*
X167433761Y-68715380D02*
X167433761Y-67715380D01*
X167433761Y-68667761D02*
X167338523Y-68715380D01*
X167148047Y-68715380D01*
X167052809Y-68667761D01*
X167005190Y-68620142D01*
X166957571Y-68524904D01*
X166957571Y-68239190D01*
X167005190Y-68143952D01*
X167052809Y-68096333D01*
X167148047Y-68048714D01*
X167338523Y-68048714D01*
X167433761Y-68096333D01*
X168290904Y-68667761D02*
X168195666Y-68715380D01*
X168005190Y-68715380D01*
X167909952Y-68667761D01*
X167862333Y-68572523D01*
X167862333Y-68191571D01*
X167909952Y-68096333D01*
X168005190Y-68048714D01*
X168195666Y-68048714D01*
X168290904Y-68096333D01*
X168338523Y-68191571D01*
X168338523Y-68286809D01*
X167862333Y-68382047D01*
X169148047Y-68667761D02*
X169052809Y-68715380D01*
X168862333Y-68715380D01*
X168767095Y-68667761D01*
X168719476Y-68572523D01*
X168719476Y-68191571D01*
X168767095Y-68096333D01*
X168862333Y-68048714D01*
X169052809Y-68048714D01*
X169148047Y-68096333D01*
X169195666Y-68191571D01*
X169195666Y-68286809D01*
X168719476Y-68382047D01*
X169624238Y-68048714D02*
X169624238Y-69048714D01*
X169624238Y-68096333D02*
X169719476Y-68048714D01*
X169909952Y-68048714D01*
X170005190Y-68096333D01*
X170052809Y-68143952D01*
X170100428Y-68239190D01*
X170100428Y-68524904D01*
X170052809Y-68620142D01*
X170005190Y-68667761D01*
X169909952Y-68715380D01*
X169719476Y-68715380D01*
X169624238Y-68667761D01*
X166743285Y-70317761D02*
X166838523Y-70365380D01*
X167029000Y-70365380D01*
X167124238Y-70317761D01*
X167171857Y-70222523D01*
X167171857Y-70174904D01*
X167124238Y-70079666D01*
X167029000Y-70032047D01*
X166886142Y-70032047D01*
X166790904Y-69984428D01*
X166743285Y-69889190D01*
X166743285Y-69841571D01*
X166790904Y-69746333D01*
X166886142Y-69698714D01*
X167029000Y-69698714D01*
X167124238Y-69746333D01*
X167743285Y-70365380D02*
X167648047Y-70317761D01*
X167600428Y-70222523D01*
X167600428Y-69365380D01*
X168505190Y-70317761D02*
X168409952Y-70365380D01*
X168219476Y-70365380D01*
X168124238Y-70317761D01*
X168076619Y-70222523D01*
X168076619Y-69841571D01*
X168124238Y-69746333D01*
X168219476Y-69698714D01*
X168409952Y-69698714D01*
X168505190Y-69746333D01*
X168552809Y-69841571D01*
X168552809Y-69936809D01*
X168076619Y-70032047D01*
X169362333Y-70317761D02*
X169267095Y-70365380D01*
X169076619Y-70365380D01*
X168981380Y-70317761D01*
X168933761Y-70222523D01*
X168933761Y-69841571D01*
X168981380Y-69746333D01*
X169076619Y-69698714D01*
X169267095Y-69698714D01*
X169362333Y-69746333D01*
X169409952Y-69841571D01*
X169409952Y-69936809D01*
X168933761Y-70032047D01*
X169838523Y-69698714D02*
X169838523Y-70698714D01*
X169838523Y-69746333D02*
X169933761Y-69698714D01*
X170124238Y-69698714D01*
X170219476Y-69746333D01*
X170267095Y-69793952D01*
X170314714Y-69889190D01*
X170314714Y-70174904D01*
X170267095Y-70270142D01*
X170219476Y-70317761D01*
X170124238Y-70365380D01*
X169933761Y-70365380D01*
X169838523Y-70317761D01*
X132842047Y-95067428D02*
X133603952Y-95067428D01*
X133223000Y-95448380D02*
X133223000Y-94686476D01*
X132969047Y-83256428D02*
X133730952Y-83256428D01*
X163576047Y-63571428D02*
X164337952Y-63571428D01*
X163957000Y-63952380D02*
X163957000Y-63190476D01*
X151003047Y-63952428D02*
X151764952Y-63952428D01*
D11*
X153797000Y-63754000D03*
X156337000Y-63754000D03*
X158877000Y-63754000D03*
D12*
X161417000Y-63754000D03*
X153797000Y-95250000D03*
D11*
X156337000Y-95250000D03*
X158877000Y-95250000D03*
X161417000Y-95250000D03*
D12*
X145288000Y-76454000D03*
D11*
X145288000Y-73914000D03*
X145288000Y-71374000D03*
X145288000Y-68834000D03*
X145288000Y-66294000D03*
X145288000Y-63754000D03*
D12*
X172720000Y-67818000D03*
D11*
X172720000Y-70358000D03*
D13*
X172847000Y-95250000D03*
X174117000Y-95250000D03*
D14*
X171577000Y-95250000D03*
D15*
X128397000Y-93726000D03*
D16*
X128397000Y-88646000D03*
X128397000Y-83566000D03*
D17*
X184150000Y-72390000D03*
D18*
X184150000Y-69850000D03*
D17*
X184150000Y-74930000D03*
X184150000Y-77470000D03*
X184150000Y-80010000D03*
X184150000Y-82550000D03*
X184150000Y-85090000D03*
X184150000Y-87630000D03*
X207010000Y-87630000D03*
X207010000Y-85090000D03*
X207010000Y-82550000D03*
X207010000Y-80010000D03*
X207010000Y-77470000D03*
X207010000Y-74930000D03*
X207010000Y-72390000D03*
X207010000Y-69850000D03*
D19*
X172847000Y-86487000D03*
D20*
X172847000Y-78867000D03*
X145288000Y-95123000D03*
D19*
X145288000Y-87503000D03*
D21*
X171577000Y-95250000D03*
D22*
X141224000Y-60706000D02*
X128397000Y-73533000D01*
X128397000Y-73533000D02*
X128397000Y-83566000D01*
X153797000Y-63754000D02*
X150749000Y-60706000D01*
X150749000Y-60706000D02*
X141224000Y-60706000D01*
X174117000Y-96250000D02*
X172450000Y-97917000D01*
X174117000Y-95250000D02*
X174117000Y-96250000D01*
X153797000Y-96350000D02*
X153797000Y-95250000D01*
X155364000Y-97917000D02*
X153797000Y-96350000D01*
X172450000Y-97917000D02*
X155364000Y-97917000D01*
X171577000Y-95025000D02*
X171577000Y-95250000D01*
X150466000Y-73914000D02*
X171577000Y-95025000D01*
X145288000Y-73914000D02*
X150466000Y-73914000D01*
X192659000Y-74930000D02*
X207010000Y-74930000D01*
X183134000Y-65405000D02*
X192659000Y-74930000D01*
X168402000Y-65405000D02*
X183134000Y-65405000D01*
X145288000Y-71374000D02*
X162433000Y-71374000D01*
X162433000Y-71374000D02*
X168402000Y-65405000D01*
X172720000Y-67818000D02*
X177165000Y-67818000D01*
X179197000Y-69850000D02*
X184150000Y-69850000D01*
X177165000Y-67818000D02*
X179197000Y-69850000D01*
X172847000Y-86487000D02*
X172847000Y-95250000D01*
X179070000Y-85090000D02*
X184150000Y-85090000D01*
X172847000Y-78867000D02*
X179070000Y-85090000D01*
M02*
