M48
; DRILL file {KiCad 5.1.4+dfsg1-1} date Fri 10 Apr 2020 15:33:23 CEST
; FORMAT={-:-/ absolute / inch / decimal}
; #@! TF.CreationDate,2020-04-10T15:33:23+02:00
; #@! TF.GenerationSoftware,Kicad,Pcbnew,5.1.4+dfsg1-1
FMAT,2
INCH
T1C0.0157
T2C0.0295
T3C0.0315
T4C0.0394
T5C0.0598
%
G90
G05
T1
X6.755Y-3.75
T2
X6.755Y-3.75
X6.805Y-3.75
X6.855Y-3.75
T3
X6.805Y-3.105
X6.805Y-3.405
X5.72Y-3.445
X5.72Y-3.745
T4
X6.8Y-2.67
X6.8Y-2.77
X7.25Y-2.75
X7.25Y-2.85
X7.25Y-2.95
X7.25Y-3.05
X7.25Y-3.15
X7.25Y-3.25
X7.25Y-3.35
X7.25Y-3.45
X8.15Y-2.75
X8.15Y-2.85
X8.15Y-2.95
X8.15Y-3.05
X8.15Y-3.15
X8.15Y-3.25
X8.15Y-3.35
X8.15Y-3.45
X6.055Y-2.51
X6.155Y-2.51
X6.255Y-2.51
X6.355Y-2.51
X5.72Y-2.51
X5.72Y-2.61
X5.72Y-2.71
X5.72Y-2.81
X5.72Y-2.91
X5.72Y-3.01
X6.055Y-3.75
X6.155Y-3.75
X6.255Y-3.75
X6.355Y-3.75
T5
X5.055Y-3.29
X5.055Y-3.49
X5.055Y-3.69
T0
M30
